<svg width="85" height="17" viewBox="0 0 85 17" fill="none" xmlns="http://www.w3.org/2000/svg">
<path d="M80.2319 3.82422C83.1887 3.82422 84.9935 5.60982 84.9935 8.83542V9.43062C84.9935 9.79542 84.8207 9.96822 84.4559 9.96822H77.9471C78.1775 11.5426 79.0415 12.0994 80.6927 12.0994C81.8831 12.0994 82.6895 11.8114 83.3615 11.485C83.7071 11.3314 83.8991 11.4466 84.0143 11.7154L84.4943 12.829C84.6095 13.117 84.4943 13.2898 84.2255 13.4434C83.5151 13.8466 82.0175 14.269 80.4431 14.269C77.0447 14.269 75.1055 12.5602 75.1055 9.04662C75.1055 5.55222 77.0831 3.82422 80.2319 3.82422ZM80.1935 6.01302C78.7727 6.01302 78.0815 6.60822 77.9279 8.22102H82.2479C82.1711 6.68502 81.5183 6.01302 80.1935 6.01302Z" fill="white"/>
<path d="M72.6357 0.40625C73.0198 0.40625 73.1733 0.559849 73.1733 0.94385V13.4623C73.1733 13.8463 73.0198 13.9999 72.6357 13.9999H71.0806C70.6966 13.9999 70.5621 13.8655 70.5045 13.5391L70.4661 13.0783H70.447C69.7174 13.8463 68.6806 14.2687 67.3174 14.2687C64.591 14.2687 62.8438 12.4639 62.8438 9.04625C62.8438 5.60945 64.591 3.82385 67.3174 3.82385C68.623 3.82385 69.6405 4.20785 70.3701 4.91825H70.4085V0.94385C70.4085 0.559849 70.5621 0.40625 70.9269 0.40625H72.6357ZM68.047 11.9071C69.6022 11.9071 70.4085 11.0047 70.4085 9.04625C70.4085 7.06865 69.6022 6.16625 68.047 6.16625C66.4918 6.16625 65.6853 7.06865 65.6853 9.04625C65.6853 11.0047 66.4918 11.9071 68.047 11.9071Z" fill="white"/>
<path d="M58.6473 0.234375H60.3561C60.7401 0.234375 60.8937 0.387974 60.8937 0.771975V2.46158C60.8937 2.84557 60.7401 2.99918 60.3561 2.99918H58.6473C58.2825 2.99918 58.1289 2.84557 58.1289 2.46158V0.771975C58.1289 0.387974 58.2825 0.234375 58.6473 0.234375ZM58.6473 4.07437H60.3561C60.7401 4.07437 60.8937 4.24718 60.8937 4.61198V13.4632C60.8937 13.8472 60.7401 14.0008 60.3561 14.0008H58.6473C58.2825 14.0008 58.1289 13.8472 58.1289 13.4632V4.61198C58.1289 4.24718 58.2825 4.07437 58.6473 4.07437Z" fill="white"/>
<path d="M46.2372 0.40625H55.8564C56.2212 0.40625 56.3748 0.559849 56.3748 0.924649V2.46065C56.3748 2.82545 56.2212 2.97905 55.8564 2.97905H52.458V13.4623C52.458 13.8463 52.3044 13.9999 51.9396 13.9999H50.1539C49.77 13.9999 49.6164 13.8463 49.6164 13.4623V2.97905H46.2372C45.8724 2.97905 45.7188 2.82545 45.7188 2.46065V0.924649C45.7188 0.559849 45.8724 0.40625 46.2372 0.40625Z" fill="white"/>
<path d="M39.7319 3.82422C42.6887 3.82422 44.4935 5.60982 44.4935 8.83542V9.43062C44.4935 9.79542 44.3207 9.96822 43.9559 9.96822H37.4471C37.6775 11.5426 38.5415 12.0994 40.1927 12.0994C41.3831 12.0994 42.1895 11.8114 42.8615 11.485C43.2071 11.3314 43.3991 11.4466 43.5143 11.7154L43.9943 12.829C44.1095 13.117 43.9943 13.2898 43.7255 13.4434C43.0151 13.8466 41.5175 14.269 39.9431 14.269C36.5447 14.269 34.6055 12.5602 34.6055 9.04662C34.6055 5.55222 36.5831 3.82422 39.7319 3.82422ZM39.6935 6.01302C38.2727 6.01302 37.5815 6.60822 37.4279 8.22102H41.7479C41.6711 6.68502 41.0183 6.01302 39.6935 6.01302Z" fill="white"/>
<path d="M33.0081 11.8299C33.2577 11.8107 33.4305 11.9643 33.4305 12.2715V13.4811C33.4305 13.7883 33.2769 13.9227 33.0081 13.9995C32.6241 14.1147 32.1057 14.2107 31.2993 14.2107C28.9761 14.2107 28.0353 13.3851 28.0353 11.1963V6.35786H26.8641C26.4993 6.35786 26.3457 6.20426 26.3457 5.83946V4.61066C26.3457 4.24586 26.4993 4.07306 26.8641 4.07306H28.0353L30.2625 1.28906C30.6465 1.28906 30.8001 1.44266 30.8001 1.82666V4.07306H32.8737C33.2385 4.07306 33.4113 4.24586 33.4113 4.61066V5.83946C33.4113 6.20426 33.2385 6.35786 32.8737 6.35786H30.8001V10.6971C30.8001 11.6379 31.1073 11.8875 32.0481 11.8875C32.4129 11.8875 32.6817 11.8491 33.0081 11.8299Z" fill="white"/>
<path d="M15.7241 4.07422H17.5481C17.9321 4.07422 18.1241 4.22782 18.2393 4.53502L20.5049 10.679H20.5817L22.6937 4.53502C22.7705 4.20862 22.9625 4.07422 23.3465 4.07422H25.1705C25.4969 4.07422 25.6505 4.38142 25.5545 4.68862L22.0409 14.039C21.3497 15.8438 20.8313 16.6886 18.3161 16.6886C17.6057 16.6886 16.9145 16.5734 16.5881 16.4774C16.3001 16.3814 16.1465 16.247 16.1465 15.8822V14.7302C16.1465 14.423 16.3769 14.2886 16.6457 14.3078C16.9529 14.3462 17.2601 14.3846 17.6441 14.3846C18.4505 14.3846 18.7577 13.9622 18.7577 13.3286C18.7577 13.0598 18.7001 12.8294 18.5849 12.5606L15.3593 4.68862C15.2441 4.41982 15.3593 4.07422 15.7241 4.07422Z" fill="white"/>
<path d="M0.658537 0H7.14634C11.439 0 13.4146 1.14689 13.4146 3.71751C13.4146 5.35876 12.3902 6.38701 11 6.70339V6.78249C12.5366 7 14 8.02825 14 10.0254C14 12.8927 11.7317 14 7.39024 14H0.658537C0.195122 14 0 13.8418 0 13.4463V0.553672C0 0.158191 0.195122 0 0.658537 0ZM0 2.4322V5.77401H6.63415C8.78049 5.77401 9.82927 5.3983 9.82927 4.07345C9.82927 2.80791 8.85366 2.4322 6.7561 2.4322H0ZM0 8.12712V11.5678H7.12195C9.31707 11.5678 10.3902 11.2119 10.3902 9.86723C10.3902 8.48305 9.21951 8.12712 7 8.12712H0Z" fill="white"/>
</svg>
