<svg width="280" height="78" viewBox="0 0 280 78" fill="none" xmlns="http://www.w3.org/2000/svg">
<circle cx="22.7028" cy="38.2432" r="5.2973" fill="white"/>
<circle cx="37.8378" cy="38.2432" r="5.2973" fill="white"/>
<circle cx="37.8378" cy="23.1081" r="5.2973" fill="white"/>
<circle cx="37.8378" cy="53.3784" r="5.2973" fill="white"/>
<circle cx="52.9732" cy="53.3784" r="4.54054" fill="white"/>
<circle cx="22.7029" cy="53.3784" r="4.54054" fill="white"/>
<circle cx="22.7029" cy="23.1081" r="4.54054" fill="white"/>
<circle cx="52.9732" cy="7.97297" r="4.54054" fill="white"/>
<circle cx="83.2434" cy="38.2432" r="4.54054" fill="white"/>
<circle cx="37.8379" cy="68.5135" r="4.54054" fill="white"/>
<circle cx="22.7027" cy="68.5135" r="3.78378" fill="white"/>
<circle cx="52.973" cy="68.5135" r="3.78378" fill="white"/>
<circle cx="68.1082" cy="53.3784" r="3.78378" fill="white"/>
<circle cx="7.56772" cy="53.3784" r="3.78378" fill="white"/>
<circle cx="7.56772" cy="23.1081" r="3.78378" fill="white"/>
<circle cx="22.7027" cy="7.97299" r="3.78378" fill="white"/>
<circle cx="68.1082" cy="7.97299" r="3.78378" fill="white"/>
<circle cx="68.1082" cy="23.1081" r="3.78378" fill="white"/>
<circle cx="7.56764" cy="38.2432" r="4.54054" fill="white"/>
<circle cx="52.9732" cy="23.1081" r="4.54054" fill="white"/>
<circle cx="52.9731" cy="38.2432" r="5.2973" fill="white"/>
<circle cx="166.487" cy="38.2432" r="4.54054" fill="white"/>
<circle cx="201.297" cy="38.2432" r="4.54054" fill="white"/>
<path d="M107.516 73.8108C98.0379 73.8108 91.5676 69.1567 91.5676 59.054C91.5676 49.9729 97.9811 44.2405 107.346 44.2405C116.654 44.2405 122.841 49.1216 122.841 58.0324C122.841 59.054 122.727 59.7919 122.614 60.7567H99.4568C99.6838 65.127 101.727 67 107.232 67C112.284 67 114.043 65.6946 114.043 63.254V62.6865H122.557V63.3108C122.557 69.4973 116.541 73.8108 107.516 73.8108ZM107.176 50.881C102.124 50.881 99.9676 52.5838 99.5703 56.2729H114.668C114.441 52.527 112.17 50.881 107.176 50.881Z" fill="white"/>
<path d="M138.597 73.8108C129.743 73.8108 124.862 68.0216 124.862 59.054C124.862 49.9729 129.686 44.2405 138.143 44.2405C144.897 44.2405 148.359 47.5892 149.324 52.3567H149.835V35.2162H158.348V73.2432H150.402V65.354H149.948C148.87 70.9729 145.124 73.8108 138.597 73.8108ZM133.489 59.054C133.489 64.2189 136.043 66.0351 141.491 66.0351C146.883 66.0351 149.835 64.1621 149.835 59.2243V58.7702C149.835 53.8324 146.94 52.0162 141.491 52.0162C136.043 52.0162 133.489 53.8324 133.489 59.054Z" fill="white"/>
<path d="M170.799 73.2432H162.285V44.8081H170.799V73.2432Z" fill="white"/>
<path d="M194.723 73.2432H187.685C181.044 73.2432 177.014 70.1216 177.014 62.9702V51.8459H172.531V44.8081H177.014V39.3027H185.528V44.8081H194.723V51.8459H185.528V62.0054C185.528 64.8432 186.606 65.5811 189.614 65.5811H194.723V73.2432Z" fill="white"/>
<path d="M205.857 73.2432H197.344V44.8081H205.857V73.2432Z" fill="white"/>
<path d="M224.9 73.8108C215.194 73.8108 208.667 68.0216 208.667 59.054C208.667 49.9729 215.194 44.2405 224.9 44.2405C234.605 44.2405 241.132 49.9729 241.132 59.054C241.132 68.0216 234.605 73.8108 224.9 73.8108ZM224.9 66.2621C230.632 66.2621 232.676 64.0486 232.676 59.054C232.676 54.0594 230.632 51.7324 224.9 51.7324C219.111 51.7324 217.124 54.0594 217.124 59.054C217.124 64.0486 219.111 66.2621 224.9 66.2621Z" fill="white"/>
<path d="M252.555 73.2432H244.042V44.8081H251.931V53.5486H252.442C253.179 48.781 256.585 44.2405 264.02 44.2405C271.796 44.2405 275.485 49.2351 275.485 55.5351V73.2432H266.971V58.3729C266.971 53.8324 265.098 51.9027 259.877 51.9027C254.485 51.9027 252.555 54.0594 252.555 58.8838V73.2432Z" fill="white"/>
</svg>
