<svg xmlns="http://www.w3.org/2000/svg" viewBox="0 0 240 30" class="w-24"><path fill="currentColor" d="M74.32 11.32c0-6.6-4.07-10.34-11.04-10.34H40.4v28.55h8.34v-7.88h10.73l5.2 8h9.63l-6.16-8.85c3.93-1.52 6.19-5 6.19-9.48h-.01zm-13.87 3.51H48.73V7.8h11.72c2.53 0 5.24 0 5.24 3.52s-2.74 3.51-5.24 3.51zM91.04.98 76.17 29.53h9.05l2.73-5.4h17.73l2.75 5.4h8.91L102.56.98H91.04zM91.16 18 96.8 6.83 102.48 18H91.16zm28.77 11.6h8.33v-8.44h19.07v-7h-19.07v-6.1h21.49V1.02h-29.82v28.59-.01zM161.6 1.02h-8.35V29.6h8.35V1.02zm31.1 0L182.67 11.8h-8.35V1.02H166v28.59h8.33V18.84h8.34L192.7 29.6h10.28l-13.02-14.3 13.02-14.29-10.28.01zm47.3 10.3c0-6.6-4.1-10.34-11.1-10.34h-22.89v28.55h8.34v-7.88h10.69l5.19 8h9.63l-6.16-8.85c4.01-1.52 6.3-5 6.3-9.48zm-13.93 3.51h-11.7V7.8h11.7c2.53 0 5.23 0 5.23 3.52s-2.7 3.51-5.23 3.51zM17.45 19.27h10.37c-.6 1.8-3.33 3.99-9.25 3.99-6.68 0-10.13-2.73-10.13-8.1 0-5.38 3.45-7.94 10.13-7.94 5.67 0 7.93 1.78 8.92 3.4h8.92C35.3 3.76 29.04 0 18.57 0 6.59 0 0 5.32 0 15c0 9.39 6.49 15 17.36 15 5.14 0 9.4-1.4 12.4-4.07l.26 3.67h6.5V13.4H17.46l-.01 5.87z"></path></svg>